<svg id="Layer_1" xmlns="http://www.w3.org/2000/svg" viewBox="0 0 125.6 81.4">
    <style>
        .st0{fill:#fff}.st1{fill:none;stroke:#231f20;stroke-width:5;stroke-linejoin:round}
    </style>
    <path class="st0" d="M39.2 45.8c3.3 0 6 2.7 6 6s-2.7 6-6 6-6-2.7-6-6 2.7-6 6-6z"/>
    <path class="st0" d="M81.1 45.8c3.3 0 6 2.7 6 6s-2.7 6-6 6-6-2.7-6-6 2.7-6 6-6z"/>
    <path class="st0" d="M90.8 25.3c-1.4 0-2.8.3-4.2.7-9 1.2-18 1.7-27 1.6-8.6.1-17.3-.4-25.8-1.5-1.4-.5-2.9-.8-4.4-.8-6.4 0-11.5 4.8-11.5 10.8S23 46.9 29.4 46.9c1.3 0 2.5-.2 3.7-.6 8.9-1.3 18-2 27-2s18.1.7 27 2c1.2.4 2.5.6 3.7.6 6.3 0 11.5-4.8 11.5-10.8s-5.1-10.8-11.5-10.8z" id="Outlines"/>
    <g id="Fills">
        <path class="st1" d="M39.2 45.8c3.3 0 6 2.7 6 6s-2.7 6-6 6-6-2.7-6-6 2.7-6 6-6z"/>
        <path class="st1" d="M81.1 45.8c3.3 0 6 2.7 6 6s-2.7 6-6 6-6-2.7-6-6 2.7-6 6-6z"/>
        <path class="st1" d="M90.8 25.3c-1.4 0-2.8.3-4.2.7-9 1.2-18 1.7-27 1.6-8.6.1-17.3-.4-25.8-1.5-1.4-.5-2.9-.8-4.4-.8-6.4 0-11.5 4.8-11.5 10.8S23 46.9 29.4 46.9c1.3 0 2.5-.2 3.7-.6 8.9-1.3 18-2 27-2s18.1.7 27 2c1.2.4 2.5.6 3.7.6 6.3 0 11.5-4.8 11.5-10.8s-5.1-10.8-11.5-10.8z"/>
    </g>
    <title>
        TheBigCity
    </title>
</svg>
