<svg id="Layer_1" xmlns="http://www.w3.org/2000/svg" viewBox="0 0 1000 1000">
    <style>
        .st0{fill:#fff}
    </style>
    <path d="M304.9 522.5c-6.1-1.3-11.6-2.5-17.1-3.7-7.9-1.7-15.9-3.1-22.6-8.1-1.9-1.4-3.4-3.3-5-5.1-.8-.9-1.4-2-2.3-2.8-6.3-5.4-8.7-12.8-11.3-20.4-2.1-6.2-2.6-12.5-3-18.9-.4-5.4-.7-10.7-1.2-16.1-.9-10.3 1.8-19.8 5.9-29 2.7-6.1 5.7-12.2 9-18 2.2-4 5.1-7.7 7.7-11.5 1.4-2 3.1-3.7 4.1-5.9 2.1-4.6 5.8-8 9.1-11.6 3.6-4 7.1-8 10.8-12 1.6-1.8 3.2-3.6 5.1-5 3.8-3.1 8-5.8 11.7-9 2.2-1.9 4.6-2.7 7.3-3.1 11.9-1.4 23.5-1 34.6 4.7 5.6 2.9 11.6 5 16.2 9.3 3.6 3.4 7 7 9.9 10.9 4.1 5.6 7.7 11.7 11.7 17.9 1-.6 2.1-1.3 3.2-2 6.4-4.1 12.6-8.7 19.3-12.3 6.9-3.8 14.2-7.2 21.5-10.1 9.6-3.8 19.2-7.5 29.3-9.6 11.8-2.5 23.6-3.9 35.6-4 10.5-.1 20.9.5 31.4.9 9.2.4 18 2.4 26.8 5 8.3 2.5 16.6 5 24.9 7.4 12.6 3.6 24.3 9.1 34.6 17.3 4 3.2 8.3 5.8 12.5 8.7.8.6 1.9.8 3.1 1.3 2.8-10 10.6-16.3 16.7-23.7 2.3-2.7 6-4.4 9.2-6.1 10.9-5.8 22.7-7.9 34.8-6.9 11.5.9 21.6 5.8 29.5 14.3 5 5.3 8 12 10.8 18.8 5.1 12.9 9.3 26.1 13.3 39.4 3.5 11.7 8 23.2 11.5 34.9 1.8 6.1 2.4 12.6 3.2 18.9 1.1 8.3 1.3 16.6 1 25-.2 4.8-.1 9.7-1.4 14.2-2.3 7.9-6 14.9-14.1 19-7.7 3.8-15.4 7.1-23.9 8.5-1.3.2-2.6.3-3.9.2-3.7-.2-7.4-.5-11.1-.7-1.6-.1-2.8.7-3.2 2.5-.7 3.2-1.6 6.2-1.5 9.6.2 5.2-.2 10.5-.8 15.7-1 9.5-2.1 19-3.6 28.4-1.2 7.7-3.1 15.2-4.6 22.8-.5 2.5-.6 5-1.1 7.5-1.2 5.7-2.8 11.3-3.8 17-1.1 6.5-2.7 12.9-4.8 19.1-.1.4-.4.8-.4 1.3-1 10.5-5.3 20.2-7.8 30.3-1.9 8-4.7 15.8-7.1 23.6-.5 1.7-1.4 3.3-2.1 4.9-2.5 5.4-4.6 11-7.7 16.1-5.6 9.1-10.4 18.9-19.3 25.5-3.1 2.3-6.1 4.8-9 7.3-6.1 5.1-11.8 10.6-18.2 15.2-7.3 5.3-15.5 8.9-24.5 10.4-11.7 2-23.5 1.9-35.2 2.1-7.5.1-15 .4-22.4-.3-8.9-.8-17.8-2.1-26.6-3.7-9.4-1.7-18.8-3.6-28.1-6-8.1-2.1-15.8-5.5-23.9-7.6-9.4-2.4-18.1-6.3-26.7-10.5-13.6-6.6-26.5-14.4-38.1-24.3-9.1-7.7-16.9-16.6-23.7-26.2-4-5.7-7.1-12.1-10.1-18.4-5.8-12-10.4-24.5-14.3-37.2-3.1-10.1-6.4-20.2-9.1-30.4-4.5-17.1-8.9-34.2-12.7-51.4-1.8-7.8-2.3-15.9-3.2-23.9-1-8.8-1.8-17.5-2.7-26.3-.8-4.4-1.5-9.1-2.1-14.1zm244.2 271.7l33-3c6.5-.6 12-3.3 17-7.3 6.2-5 12.2-10.1 18.6-14.9 8.1-6.1 14.5-13.6 20.2-22 10.9-16.2 16.5-34.4 21.5-52.9 2.2-8.2 3.9-16.6 5.9-24.8 2.6-10.6 5.4-21.2 7.8-31.8 2.2-10.1 3.9-20.2 5.7-30.4 1.1-6.2 2.4-12.4 2.9-18.6 1.2-14.6 2-29.2 2.9-43.8.2-2.8.4-5.6-.9-8.4-1-2.4.4-4.8 2.9-5.7 3.9-1.4 7.8-1.7 11.7.2 4.5 2.3 9.5 2.8 14.4 2.3 5.9-.6 11.5-2.5 16.9-5.2 4.7-2.4 8.8-5.6 10.1-10.8 2.3-9.4 4.2-19 2.3-28.8-.1-.7-.1-1.5-.1-2.2.7-8-.4-15.8-2.3-23.5-1.7-6.9-4.1-13.7-6.3-20.5-4.2-13.4-8.2-26.9-12.8-40.2-2.9-8.3-6.5-16.3-10.2-24.2-1.6-3.4-4.1-6.7-7-9.1-5-4.2-11-6.3-17.7-6.4-6.5 0-12.6 1.3-18.7 3.9-6.5 2.7-11.8 6.9-16.2 12.1-3.9 4.7-6 10.5-7.9 16.2-1.1 3.2-2.3 5.7-5.8 5.7-3.1 0-5.9 2.8-9.1 1-2.1-1.1-4.1-2.4-6-3.9-5.5-4.4-10.7-9.1-16.3-13.2-7.6-5.6-15.8-10.2-24.9-12.9-11-3.4-22-7-33.1-9.8-7.9-2-16.1-3.8-24.2-4.2-12.4-.6-24.8-.4-37.2.2-11.6.6-23.2 2.4-34.2 6.5-2.5.9-5 2-7.6 2.7-10.8 3.2-20.7 8.5-30.8 13.4-8.7 4.3-16.9 9.4-24.3 16-1.1 1-3 2-4.4 1.8-5-.5-9.1-2.6-11.6-7.2-1.8-3.4-3.5-6.9-5.7-10-4.8-6.4-9.3-13.1-15-18.8-6.6-6.7-14.5-10.6-23.9-10.7-5.4-.1-10.5 1-15.2 4.4-6.9 5.1-12.4 11.6-18.5 17.6-6.9 6.8-12 14.9-17.4 22.8-7.2 10.5-14 21.2-17.9 33.5-1 3.2-1.5 6.7-2.1 10.1-1.6 9-.7 17.9.5 26.8.9 6.9 2.2 13.8 5.2 20.3 3 6.3 8.1 11 12 16.6.6.8 1.6 1.5 2.5 1.8 7.4 2.7 14.8 5.4 22.9 5.5 4.9.1 9.7 1.3 14.5 2.1.6.1 1.5.7 1.7 1.2 1.5 4 4 7.6 4 12.2 0 4.8.3 9.6.7 14.3.3 4 .8 8 1.1 12.1.7 10.7 1.8 21.5 4 32 2.4 11.3 5.3 22.4 8.2 33.6 3.3 12.7 6.7 25.4 10.5 38 3.3 10.7 7.1 21.2 11 31.7 2 5.5 4.4 10.8 7.1 16 2.8 5.4 6.1 10.6 9.5 15.7 3.6 5.3 7 10.9 11.6 15.3 7.1 6.8 15.1 12.6 22.7 18.9 6.5 5.4 14.3 8.7 21.8 12.4 9 4.4 18 8.9 27.7 11.6 11.5 3.2 22.8 7.3 34.5 9.6 19 3.7 38.1 7.7 57.8 7.1z"/>
    <path d="M684.1 425.6c2.3.3 4.8.3 7 1.1 2 .8 4 2.1 5.2 3.8 3.1 4.4 5.2 9.4 5.2 15 0 1.8.4 3.6 1 5.3 2.3 6.7 1.5 13.2-.7 19.7-.4 1.2-.9 2.6-1.9 3.4-5.3 4.8-11 7.6-18.6 5.6-6.7-1.7-9.5-6.4-11.5-12.3-1.9-5.8-3.9-11.6-5.9-17.4-.4-1.1-.9-2.2-1.5-3.2-3.3-5.5-3.5-7.5.8-11.9 5.6-5.7 12.3-9.7 20.9-9.1z"/>
    <path d="M331.2 416.7c7.6 1.3 14.7 3.5 19.1 10.6 1.6 2.6 1.6 4-.3 6.1-3.6 3.7-6.1 7.9-8.1 12.7-1.3 3.1-3.7 5.8-5.2 8.9-2.5 5.1-6.1 9.4-9.3 14-.8 1.2-2.4 2.3-3.9 2.7-2.7.7-5.5 1.1-8.3 1.1-2.7 0-4.8-1.3-5.8-4.1-1.6-4.3-3.9-8.5-5-12.9-1.4-6-1.8-12.1 1.4-17.8 3.3-6.1 7.2-11.6 12.3-16.3 3.8-3.5 7.9-5.2 13.1-5z"/>
    <path d="M379.4 542.2c0-7.8 4.3-13.1 10.7-16.3 6.4-3.2 12.9-1.8 18.4 2.8 1.9 1.6 3.1 3.8 3.6 6.8 1 5.8-.6 10.5-3.5 15.2-4.9 8.1-17.5 10.3-24.6 4.1-3.2-2.8-4.5-6.4-4.6-12.6zm17.3-6.5c-2.5 1.7-2.5 1.7-2.9 4.5 1-1.6 1.7-2.7 2.9-4.5z"/>
    <path d="M598.2 549.4c.1-4.7.8-9 4-12 3.4-3.1 7.8-5.5 12.5-5.2 12.5.8 18.2 8.6 18.2 17.5-.1 10.1-10 16.9-19.2 16.8-8.8-.2-16-8.6-15.5-17.1zm12.6-2.5c0 2 1.1 2.9 3.6 2.9 2.4 0 4.2-1.4 4.1-3.2-.1-1.6-1.9-3.4-3.6-3.4-2.4 0-4.1 1.4-4.1 3.7z"/>
    <path d="M597.6 691.6c-2.6-1.2-5.2-.9-7.9-.1-1.8.5-3 1.6-3.1 3.4-.6 5.6-3.1 10.3-5.7 15.3-4.7 9.1-11.7 12.9-21.5 12.5-1.3 0-2.7.1-4 .1-2.2 0-4.4.3-6.6-.1-5.4-1-10.7-2.3-15.8-4.7-3.3-1.6-5.4-3.8-7-7.1-2.9-6.1-1.9-12.8-3.6-19-.1-.5 0-1.3.3-1.7 1.1-1.8 1.1-3.5.5-5.5-.2-.8.6-2.2 1.3-3 4.2-4.6 9.9-7.6 13.3-13.1.4-.7 1.5-1 2.2-1.5 2.3-1.9 4.8-3.6 6.8-5.8 4.6-5.1 8.9-10.3 13.3-15.6 6.1-7.4 9.2-15.4 6-25.2-1-3-2.9-5.2-4.1-7.8-3.3-7.3-9.2-10.7-16.8-11.6-2.5-.3-5-.3-7.6-.6-9.3-.9-18.7-2-28-2.9-2-.2-4.2-.2-6.1.3-8.9 2.2-18.2 2.9-26.9 6.2-.7.3-1.5.4-2.2.4-8.7.2-14.9 10.7-12.8 19.1 1.8 7.3 5 14.1 9.6 20.1 4.5 6 9.6 11.4 15.3 16.3 3.1 2.6 6.2 5.3 8.5 8.5 2.2 3.1 4.7 5.6 7.9 7.7 1.4 1 2.7 3 2.9 4.7.6 4.1.6 8.3.8 12.2-.3 3.2-.3 6.1-.8 8.8-.6 2.9-2 5.5-3.2 8.2-1.3 2.8-2.8 4.7-5.4 5.9-3.7 1.7-7.4 3.2-11.8 3.4-5.5.3-11 2-16.5 2.8-4.4.6-8.9.6-13.3 1-2 .1-3.6-.6-4.7-2.2-1.5-2.2-2.9-4.5-4-6.9-.8-1.9-.9-4.1-1.4-6.1-.4-1.8-1.2-3.8-3.3-3.8-2.5-.1-5.2.2-7.4 1.1-3.5 1.4-4.4 3.9-2.9 7.3 2.3 5.5 4.9 10.8 7.4 16.3 1 2.2 2.8 3.4 5.1 4 6.6 1.5 13.3.9 20 1.1.3 0 .6-.1.9-.1 8.7-1.5 17.5-2.8 26.2-4.5 4.9-1 10-1.6 14.4-4.4 1.8-1.2 4.1-1.7 6.1-2.7 2-1.1 3.9-.7 5.4.6 4.2 3.6 9.5 5 14.4 7.1 3.5 1.6 7.4 3.1 11.6 2.8 2.8-.2 5.6.6 8.4 1 7.8 1.1 15.4.4 22.6-3.2 4-2 8.1-3.9 12.2-5.5 7.2-2.7 11.8-7.5 11.7-15.4-.1-4.3 1.1-8.2 2.1-12.2.7-3.3 0-4.6-2.8-5.9z"/>
    <path d="M331.2 416.7c-5.1-.2-9.3 1.5-13.1 4.9-5.2 4.7-9.1 10.2-12.3 16.3-3.1 5.8-2.8 11.9-1.4 17.8 1.1 4.4 3.3 8.6 5 12.9 1 2.7 3.1 4.1 5.8 4.1 2.8 0 5.6-.4 8.3-1.1 1.5-.4 3.1-1.5 3.9-2.7 3.1-4.7 6.8-8.9 9.3-14 1.5-3.1 3.9-5.8 5.2-8.9 2-4.7 4.6-9 8.1-12.7 2-2 2-3.4.3-6.1-4.4-7.1-11.5-9.2-19.1-10.5z"/>
    <path d="M701.5 445.5c0-5.6-2.1-10.6-5.2-15-1.2-1.7-3.2-3-5.2-3.8-2.1-.8-4.6-.8-7-1.1-8.6-.6-15.3 3.3-20.9 9.1-4.3 4.4-4.1 6.4-.8 11.9.6 1 1.1 2.1 1.5 3.2 2 5.8 4 11.6 5.9 17.4 1.9 5.9 4.7 10.5 11.5 12.3 7.6 2 13.3-.9 18.6-5.6.9-.8 1.4-2.2 1.9-3.4 2.2-6.5 3-13 .7-19.7-.6-1.7-1-3.5-1-5.3z"/>
    <path d="M614.7 532.2c-4.7-.3-9.1 2.1-12.5 5.2-3.2 3-3.9 7.3-4 12-.5 8.5 6.7 16.9 15.5 17.1 9.1.1 19.1-6.7 19.2-16.8 0-8.9-5.7-16.7-18.2-17.5z"/>
    <path d="M408.6 528.7c-5.5-4.6-12-6-18.4-2.8-6.4 3.2-10.7 8.5-10.7 16.3.1 6.1 1.4 9.8 4.6 12.6 7.1 6.2 19.7 4 24.6-4.1 2.9-4.8 4.5-9.4 3.5-15.2-.5-2.9-1.7-5.2-3.6-6.8z"/>
    <path class="st0" d="M742 488.4c-.1-.7-.1-1.5-.1-2.2.7-8-.4-15.8-2.3-23.5-1.7-6.9-4.1-13.7-6.3-20.5-4.2-13.4-8.2-26.9-12.8-40.2-2.9-8.3-6.5-16.3-10.2-24.2-1.6-3.4-4.1-6.7-7-9.1-5-4.2-11-6.3-17.7-6.4-6.5 0-12.6 1.3-18.7 3.9-6.5 2.7-11.8 6.9-16.2 12.1-3.9 4.7-6 10.5-7.9 16.2-1.1 3.2-2.3 5.7-5.8 5.7-3.1 0-5.9 2.8-9.1 1-2.1-1.1-4.1-2.4-6-3.9-5.5-4.4-10.7-9.1-16.3-13.2-7.6-5.6-15.8-10.2-24.9-12.9-11-3.4-22-7-33.1-9.8-7.9-2-16.1-3.8-24.2-4.2-12.4-.6-24.8-.4-37.2.2-11.6.6-23.2 2.4-34.2 6.5-2.5.9-5 2-7.6 2.7-10.8 3.2-20.7 8.5-30.8 13.4-8.7 4.3-16.9 9.4-24.3 16-1.1 1-3 2-4.4 1.8-5-.5-9.1-2.6-11.6-7.2-1.8-3.4-3.5-6.9-5.7-10-4.8-6.4-9.3-13.1-15-18.8-6.6-6.7-14.5-10.6-23.9-10.7-5.4-.1-10.5 1-15.2 4.4-6.9 5.1-12.4 11.6-18.5 17.6-6.9 6.8-12 14.9-17.4 22.8-7.2 10.5-14 21.2-17.9 33.5-1 3.2-1.5 6.7-2.1 10.1-1.6 9-.7 17.9.5 26.8.9 6.9 2.2 13.8 5.2 20.3 3 6.3 8.1 11 12 16.6.6.8 1.6 1.5 2.5 1.8 7.4 2.7 14.8 5.4 22.9 5.5 4.9.1 9.7 1.3 14.5 2.1.6.1 1.5.7 1.7 1.2 1.5 4 4 7.6 4 12.2 0 4.8.3 9.6.7 14.3.3 4 .8 8 1.1 12.1.7 10.7 1.8 21.5 4 32 2.4 11.3 5.3 22.4 8.2 33.6 3.3 12.7 6.7 25.4 10.5 38 3.3 10.7 7.1 21.2 11 31.7 2 5.5 4.4 10.8 7.1 16 2.8 5.4 6.1 10.6 9.5 15.7 3.6 5.3 7 10.9 11.6 15.3 7.1 6.8 15.1 12.6 22.7 18.9 6.5 5.4 14.3 8.7 21.8 12.4 9 4.4 18 8.9 27.7 11.6 11.5 3.2 22.8 7.3 34.5 9.6 19 3.8 38.2 7.8 57.9 7.2l33-3c6.5-.6 12-3.3 17-7.3 6.2-5 12.2-10.1 18.6-14.9 8.1-6.1 14.5-13.6 20.2-22 10.9-16.2 16.5-34.4 21.5-52.9 2.2-8.2 3.9-16.6 5.9-24.8 2.6-10.6 5.4-21.2 7.8-31.8 2.2-10.1 3.9-20.2 5.7-30.4 1.1-6.2 2.4-12.4 2.9-18.6 1.2-14.6 2-29.2 2.9-43.8.2-2.8.4-5.6-.9-8.4-1-2.4.4-4.8 2.9-5.7 3.9-1.4 7.8-1.7 11.7.2 4.5 2.3 9.5 2.8 14.4 2.3 5.9-.6 11.5-2.5 16.9-5.2 4.7-2.4 8.8-5.6 10.1-10.8 2.1-9.5 4-19.1 2.2-28.9zm-392.1-55.1c-3.6 3.7-6.1 7.9-8.1 12.7-1.3 3.1-3.7 5.8-5.2 8.9-2.5 5.1-6.1 9.4-9.3 14-.8 1.2-2.4 2.3-3.9 2.7-2.7.7-5.5 1.1-8.3 1.1-2.7 0-4.8-1.3-5.8-4.1-1.6-4.3-3.9-8.5-5-12.9-1.4-6-1.8-12.1 1.4-17.8 3.3-6.1 7.2-11.6 12.3-16.3 3.8-3.4 8-5.1 13.1-4.9 7.6 1.3 14.7 3.5 19.1 10.6 1.7 2.6 1.7 4-.3 6zm58.8 117.4c-4.9 8.1-17.5 10.3-24.6 4.1-3.2-2.8-4.5-6.5-4.6-12.6 0-7.8 4.3-13.1 10.7-16.3 6.4-3.2 12.9-1.8 18.4 2.8 1.9 1.6 3.1 3.8 3.6 6.8 1 5.8-.6 10.5-3.5 15.2zm191.7 146.5c-.9 4-2.1 7.9-2.1 12.2.1 7.9-4.5 12.6-11.7 15.4-4.2 1.6-8.2 3.5-12.2 5.5-7.2 3.6-14.8 4.2-22.6 3.2-2.8-.4-5.6-1.2-8.4-1-4.2.3-8.1-1.3-11.6-2.8-4.9-2.1-10.2-3.5-14.4-7.1-1.5-1.3-3.4-1.7-5.4-.6-2 1-4.2 1.5-6.1 2.7-4.4 2.8-9.5 3.5-14.4 4.4-8.7 1.7-17.5 3-26.2 4.5-.3 0-.6.1-.9.1-6.7-.2-13.4.4-20-1.1-2.3-.5-4.1-1.8-5.1-4-2.5-5.4-5.1-10.8-7.4-16.3-1.5-3.4-.6-5.9 2.9-7.3 2.3-.9 4.9-1.1 7.4-1.1 2 0 2.8 2 3.3 3.8.5 2 .6 4.2 1.4 6.1 1 2.4 2.5 4.7 4 6.9 1 1.5 2.7 2.3 4.7 2.2 4.4-.3 8.9-.4 13.3-1 5.5-.8 11-2.5 16.5-2.8 4.4-.2 8-1.6 11.8-3.4 2.6-1.2 4.1-3.1 5.4-5.9 1.2-2.7 2.6-5.3 3.2-8.2.6-2.8.6-5.6.8-8.8-.2-3.8-.2-8-.8-12.2-.2-1.7-1.5-3.8-2.9-4.7-3.2-2.1-5.6-4.6-7.9-7.7-2.3-3.2-5.5-5.9-8.5-8.5-5.8-4.8-10.8-10.3-15.3-16.3s-7.8-12.8-9.6-20.1c-2-8.4 4.2-18.9 12.8-19.1.7 0 1.5-.1 2.2-.4 8.7-3.3 18-4 26.9-6.2 2-.5 4.1-.5 6.1-.3 9.4.9 18.7 1.9 28 2.9 2.5.3 5.1.3 7.6.6 7.6.9 13.5 4.3 16.8 11.6 1.2 2.6 3.1 4.8 4.1 7.8 3.2 9.8.2 17.8-6 25.2-4.4 5.3-8.7 10.5-13.3 15.6-2 2.2-4.5 3.9-6.8 5.8-.7.6-1.7.8-2.2 1.5-3.4 5.4-9.1 8.5-13.3 13.1-.7.8-1.6 2.2-1.3 3 .6 2 .6 3.7-.5 5.5-.3.5-.4 1.2-.3 1.7 1.6 6.3.6 13 3.6 19 1.6 3.3 3.7 5.5 7 7.1 5.1 2.4 10.4 3.7 15.8 4.7 2.1.4 4.4.1 6.6.1 1.3 0 2.7-.1 4-.1 9.8.3 16.8-3.4 21.5-12.5 2.6-5 5.1-9.7 5.7-15.3.2-1.8 1.3-2.8 3.1-3.4 2.7-.8 5.2-1.1 7.9.1 2.8 1.6 3.5 2.9 2.8 5.9zm13.3-130.8c-8.8-.1-16-8.5-15.5-17.1.1-4.7.8-9 4-12 3.4-3.1 7.8-5.5 12.5-5.2 12.5.8 18.2 8.6 18.2 17.5-.1 10.2-10.1 17-19.2 16.8zm88.1-95.9c-.4 1.2-.9 2.6-1.9 3.4-5.3 4.8-11 7.6-18.6 5.6-6.7-1.7-9.5-6.4-11.5-12.3-1.9-5.8-3.9-11.6-5.9-17.4-.4-1.1-.9-2.2-1.5-3.2-3.3-5.5-3.5-7.5.8-11.9 5.6-5.8 12.3-9.7 20.9-9.1 2.3.3 4.8.3 7 1.1 2 .8 4 2.1 5.2 3.8 3.1 4.4 5.2 9.4 5.2 15 0 1.8.4 3.6 1 5.3 2.3 6.7 1.5 13.2-.7 19.7z"/>
    <path class="st0" d="M615 543.2c-2.4-.1-4.1 1.4-4.2 3.6 0 2 1.1 2.9 3.6 2.9 2.4 0 4.2-1.4 4.1-3.2-.1-1.5-1.9-3.2-3.5-3.3z"/>
    <path class="st0" d="M392.4 536.5c-1.9 1.5-2.2 3.8-.8 5.5 1.3 1.5 2.8 1.5 4.7-.1 1.8-1.6 2.3-3.8 1.1-5.1-1.2-1.2-3.7-1.3-5-.3z"/>
</svg>
